<svg xmlns="http://www.w3.org/2000/svg" viewBox="0 0 666 289" width="666" height="289" role="img" aria-label="Load records" font-family="-apple-system, BlinkMacSystemFont, &quot;Segoe UI&quot;, &quot;Noto Sans&quot;, Helvetica, Arial, sans-serif">
<title>Load records</title>
<desc>One successful request, from the browser to the database and back.</desc>
<defs><pattern id="dots" width="18" height="18" patternUnits="userSpaceOnUse"><circle cx="1.5" cy="1.5" r="1" fill="rgba(140,149,159,.5)"/></pattern><marker id="mk-added" viewBox="0 0 10 10" refX="8" refY="5" markerWidth="6.5" markerHeight="6.5" orient="auto-start-reverse"><path d="M0,0 L10,5 L0,10 z" fill="#1f883d"/></marker><marker id="mko-added" viewBox="0 0 10 10" refX="10" refY="5" markerWidth="6.5" markerHeight="6.5" orient="auto-start-reverse"><path d="M2,1 L10,5 L2,9" fill="none" stroke="#1f883d" stroke-width="1.6" stroke-linecap="round" stroke-linejoin="round"/></marker><marker id="mk-modified" viewBox="0 0 10 10" refX="8" refY="5" markerWidth="6.5" markerHeight="6.5" orient="auto-start-reverse"><path d="M0,0 L10,5 L0,10 z" fill="#bf8700"/></marker><marker id="mko-modified" viewBox="0 0 10 10" refX="10" refY="5" markerWidth="6.5" markerHeight="6.5" orient="auto-start-reverse"><path d="M2,1 L10,5 L2,9" fill="none" stroke="#bf8700" stroke-width="1.6" stroke-linecap="round" stroke-linejoin="round"/></marker><marker id="mk-removed" viewBox="0 0 10 10" refX="8" refY="5" markerWidth="6.5" markerHeight="6.5" orient="auto-start-reverse"><path d="M0,0 L10,5 L0,10 z" fill="#cf222e"/></marker><marker id="mko-removed" viewBox="0 0 10 10" refX="10" refY="5" markerWidth="6.5" markerHeight="6.5" orient="auto-start-reverse"><path d="M2,1 L10,5 L2,9" fill="none" stroke="#cf222e" stroke-width="1.6" stroke-linecap="round" stroke-linejoin="round"/></marker><marker id="mk-neutral" viewBox="0 0 10 10" refX="8" refY="5" markerWidth="6.5" markerHeight="6.5" orient="auto-start-reverse"><path d="M0,0 L10,5 L0,10 z" fill="#8c959f"/></marker><marker id="mko-neutral" viewBox="0 0 10 10" refX="10" refY="5" markerWidth="6.5" markerHeight="6.5" orient="auto-start-reverse"><path d="M2,1 L10,5 L2,9" fill="none" stroke="#8c959f" stroke-width="1.6" stroke-linecap="round" stroke-linejoin="round"/></marker><marker id="mk-colour-0969da" viewBox="0 0 10 10" refX="8" refY="5" markerWidth="6.5" markerHeight="6.5" orient="auto-start-reverse"><path d="M0,0 L10,5 L0,10 z" fill="#0969da"/></marker><marker id="mko-colour-0969da" viewBox="0 0 10 10" refX="10" refY="5" markerWidth="6.5" markerHeight="6.5" orient="auto-start-reverse"><path d="M2,1 L10,5 L2,9" fill="none" stroke="#0969da" stroke-width="1.6" stroke-linecap="round" stroke-linejoin="round"/></marker><marker id="mk-colour-8250df" viewBox="0 0 10 10" refX="8" refY="5" markerWidth="6.5" markerHeight="6.5" orient="auto-start-reverse"><path d="M0,0 L10,5 L0,10 z" fill="#8250df"/></marker><marker id="mko-colour-8250df" viewBox="0 0 10 10" refX="10" refY="5" markerWidth="6.5" markerHeight="6.5" orient="auto-start-reverse"><path d="M2,1 L10,5 L2,9" fill="none" stroke="#8250df" stroke-width="1.6" stroke-linecap="round" stroke-linejoin="round"/></marker><marker id="mk-colour-087f8c" viewBox="0 0 10 10" refX="8" refY="5" markerWidth="6.5" markerHeight="6.5" orient="auto-start-reverse"><path d="M0,0 L10,5 L0,10 z" fill="#087f8c"/></marker><marker id="mko-colour-087f8c" viewBox="0 0 10 10" refX="10" refY="5" markerWidth="6.5" markerHeight="6.5" orient="auto-start-reverse"><path d="M2,1 L10,5 L2,9" fill="none" stroke="#087f8c" stroke-width="1.6" stroke-linecap="round" stroke-linejoin="round"/></marker><marker id="mk-colour-bf3989" viewBox="0 0 10 10" refX="8" refY="5" markerWidth="6.5" markerHeight="6.5" orient="auto-start-reverse"><path d="M0,0 L10,5 L0,10 z" fill="#bf3989"/></marker><marker id="mko-colour-bf3989" viewBox="0 0 10 10" refX="10" refY="5" markerWidth="6.5" markerHeight="6.5" orient="auto-start-reverse"><path d="M2,1 L10,5 L2,9" fill="none" stroke="#bf3989" stroke-width="1.6" stroke-linecap="round" stroke-linejoin="round"/></marker><marker id="mk-colour-b45309" viewBox="0 0 10 10" refX="8" refY="5" markerWidth="6.5" markerHeight="6.5" orient="auto-start-reverse"><path d="M0,0 L10,5 L0,10 z" fill="#b45309"/></marker><marker id="mko-colour-b45309" viewBox="0 0 10 10" refX="10" refY="5" markerWidth="6.5" markerHeight="6.5" orient="auto-start-reverse"><path d="M2,1 L10,5 L2,9" fill="none" stroke="#b45309" stroke-width="1.6" stroke-linecap="round" stroke-linejoin="round"/></marker><marker id="mk-colour-946800" viewBox="0 0 10 10" refX="8" refY="5" markerWidth="6.5" markerHeight="6.5" orient="auto-start-reverse"><path d="M0,0 L10,5 L0,10 z" fill="#946800"/></marker><marker id="mko-colour-946800" viewBox="0 0 10 10" refX="10" refY="5" markerWidth="6.5" markerHeight="6.5" orient="auto-start-reverse"><path d="M2,1 L10,5 L2,9" fill="none" stroke="#946800" stroke-width="1.6" stroke-linecap="round" stroke-linejoin="round"/></marker><marker id="mk-colour-1a7f37" viewBox="0 0 10 10" refX="8" refY="5" markerWidth="6.5" markerHeight="6.5" orient="auto-start-reverse"><path d="M0,0 L10,5 L0,10 z" fill="#1a7f37"/></marker><marker id="mko-colour-1a7f37" viewBox="0 0 10 10" refX="10" refY="5" markerWidth="6.5" markerHeight="6.5" orient="auto-start-reverse"><path d="M2,1 L10,5 L2,9" fill="none" stroke="#1a7f37" stroke-width="1.6" stroke-linecap="round" stroke-linejoin="round"/></marker><marker id="mk-colour-57606a" viewBox="0 0 10 10" refX="8" refY="5" markerWidth="6.5" markerHeight="6.5" orient="auto-start-reverse"><path d="M0,0 L10,5 L0,10 z" fill="#57606a"/></marker><marker id="mko-colour-57606a" viewBox="0 0 10 10" refX="10" refY="5" markerWidth="6.5" markerHeight="6.5" orient="auto-start-reverse"><path d="M2,1 L10,5 L2,9" fill="none" stroke="#57606a" stroke-width="1.6" stroke-linecap="round" stroke-linejoin="round"/></marker></defs>
<rect x="0" y="0" width="666" height="289" rx="12" fill="#f4f5f7"/>
<rect x="0" y="0" width="666" height="289" rx="12" fill="url(#dots)"/>
<g transform="translate(12,10)"><g><rect class="lanebox" x="4" y="6" width="174" height="257" rx="12" fill="rgba(255,255,255,.55)"/>
<rect class="lanebox" x="234" y="6" width="174" height="257" rx="12" fill="rgba(255,255,255,.55)"/>
<rect class="lanebox" x="464" y="6" width="174" height="257" rx="12" fill="rgba(255,255,255,.55)"/></g>
<g><line class="lifeline" x1="91" y1="72" x2="91" y2="251" stroke="#d1d9e0" stroke-width="1" stroke-dasharray="3 4"/>
<line class="lifeline" x1="321" y1="72" x2="321" y2="251" stroke="#d1d9e0" stroke-width="1" stroke-dasharray="3 4"/>
<rect class="actbar" x="315" y="113" width="12" height="114" rx="4" fill="#b9f0c4" stroke="rgba(31,136,61,.55)"/>
<line class="lifeline" x1="551" y1="72" x2="551" y2="251" stroke="#d1d9e0" stroke-width="1" stroke-dasharray="3 4"/>
<rect class="actbar" x="545" y="151" width="12" height="38" rx="4" fill="#b9f0c4" stroke="rgba(31,136,61,.55)"/></g>
<g><g class="cardsh" filter="drop-shadow(0 1px 2px rgba(31,35,40,.14))"><rect class="card" x="16" y="18" width="150" height="52" rx="10" fill="#ffffff" stroke-width="1" stroke="#1a7f37" stroke-opacity="1"/>
<rect class="chip" x="30" y="31" width="26" height="26" rx="7" fill="#1a7f37" fill-opacity="0.15" stroke="#1a7f37"/><g><rect class="glyph-stroke" x="36" y="38" width="14" height="12" rx="2" stroke="#59636e" stroke-width="1.4" fill="none"/>
<path class="glyph-stroke" d="M40.5,38 v12" stroke="#59636e" stroke-width="1.4" fill="none"/></g>
<text class="ntitle" x="66" y="49" font-size="13" font-weight="600" fill="#1f2328">Browser</text></g>
<g class="cardsh" filter="drop-shadow(0 1px 2px rgba(31,35,40,.14))"><rect class="card" x="246" y="18" width="150" height="52" rx="10" fill="#ffffff" stroke-width="1" stroke="#0969da" stroke-opacity="1"/>
<rect class="chip" x="260" y="31" width="26" height="26" rx="7" fill="#0969da" fill-opacity="0.15" stroke="#0969da"/><g><rect class="glyph-stroke" x="266" y="38" width="14" height="12" rx="2" stroke="#59636e" stroke-width="1.4" fill="none"/>
<path class="glyph-stroke" d="M266,42 h14" stroke="#59636e" stroke-width="1.4" fill="none"/></g>
<text class="ntitle" x="296" y="49" font-size="13" font-weight="600" fill="#1f2328">API</text></g>
<g class="cardsh" filter="drop-shadow(0 1px 2px rgba(31,35,40,.14))"><rect class="card" x="476" y="18" width="150" height="52" rx="10" fill="#ffffff" stroke-width="1" stroke="#8250df" stroke-opacity="1"/>
<rect class="chip" x="490" y="31" width="26" height="26" rx="7" fill="#8250df" fill-opacity="0.15" stroke="#8250df"/><g><ellipse class="glyph-stroke" stroke="#59636e" stroke-width="1.4" fill="none" cx="503" cy="39.5" rx="6.5" ry="2.6"/>
<path class="glyph-stroke" d="M496.5,39.5 v9 a6.5,2.6 0 0 0 13 0 v-9" stroke="#59636e" stroke-width="1.4" fill="none"/></g>
<text class="ntitle" x="526" y="49" font-size="13" font-weight="600" fill="#1f2328">Database</text></g></g>
<g><path class="msg edge-neutral" d="M91,113 L310,113" marker-end="url(#mk-colour-0969da)" fill="none" stroke="#0969da" stroke-width="1.5"/>
<circle r="2.6" fill="#0969da" opacity="0"><animateMotion dur="5.6s" repeatCount="indefinite" keyPoints="0;0;1;1" keyTimes="0;0;0.25;1" calcMode="linear" path="M91,113 L310,113"/><animate attributeName="opacity" dur="5.6s" repeatCount="indefinite" values="0;0;1;1;0;0" keyTimes="0;0;0.02;0.23;0.25;1"/></circle>
<path class="msg edge-neutral" d="M327,151 L540,151" marker-end="url(#mk-colour-0969da)" fill="none" stroke="#0969da" stroke-width="1.5"/>
<circle r="2.6" fill="#0969da" opacity="0"><animateMotion dur="5.6s" repeatCount="indefinite" keyPoints="0;0;1;1" keyTimes="0;0.25;0.5;1" calcMode="linear" path="M327,151 L540,151"/><animate attributeName="opacity" dur="5.6s" repeatCount="indefinite" values="0;0;1;1;0;0" keyTimes="0;0.25;0.27;0.48;0.5;1"/></circle>
<path class="msg edge-neutral msg-return" d="M545,189 L332,189" marker-end="url(#mk-colour-1a7f37)" fill="none" stroke="#1a7f37" stroke-width="1.5" stroke-dasharray="4 3" opacity="0.8"/>
<circle r="2.6" fill="#1a7f37" opacity="0"><animateMotion dur="5.6s" repeatCount="indefinite" keyPoints="0;0;1;1" keyTimes="0;0.5;0.75;1" calcMode="linear" path="M545,189 L332,189"/><animate attributeName="opacity" dur="5.6s" repeatCount="indefinite" values="0;0;1;1;0;0" keyTimes="0;0.5;0.52;0.73;0.75;1"/></circle>
<path class="msg edge-neutral msg-return" d="M315,227 L96,227" marker-end="url(#mk-colour-1a7f37)" fill="none" stroke="#1a7f37" stroke-width="1.5" stroke-dasharray="4 3" opacity="0.8"/>
<circle r="2.6" fill="#1a7f37" opacity="0"><animateMotion dur="5.6s" repeatCount="indefinite" keyPoints="0;0;1;1" keyTimes="0;0.75;1;1" calcMode="linear" path="M315,227 L96,227"/><animate attributeName="opacity" dur="5.6s" repeatCount="indefinite" values="0;0;1;1;0;0" keyTimes="0;0.75;0.77;0.98;1;1"/></circle></g>
<g><g><rect class="lpill" x="162.56" y="105.5" width="75.88" height="15" rx="7.5" fill="#ffffff" stroke="#d8dee4" stroke-width="1"/><text class="ltext" x="200.5" y="116.5" text-anchor="middle" font-size="9.5" font-weight="600" fill="#59636e">GET /records</text></g>
<g><rect class="lpill" x="395.28" y="143.5" width="76.44" height="15" rx="7.5" fill="#ffffff" stroke="#d8dee4" stroke-width="1"/><text class="ltext" x="433.5" y="154.5" text-anchor="middle" font-size="9.5" font-weight="600" fill="#59636e">Read records</text></g>
<g><rect class="lpill" x="417.91" y="181.5" width="41.18" height="15" rx="7.5" fill="#ffffff" stroke="#d8dee4" stroke-width="1"/><text class="ltext" x="438.5" y="192.5" text-anchor="middle" font-size="9.5" font-weight="600" fill="#59636e">Rows</text></g>
<g><rect class="lpill" x="161.97" y="219.5" width="87.07" height="15" rx="7.5" fill="#ffffff" stroke="#d8dee4" stroke-width="1"/><text class="ltext" x="205.5" y="230.5" text-anchor="middle" font-size="9.5" font-weight="600" fill="#59636e">JSON response</text></g></g></g>

</svg>